<svg width="200" height="200" viewBox="0 0 200 200" fill="none" xmlns="http://www.w3.org/2000/svg">
  <!-- Background Circle with subtle gradient -->
  <circle cx="100" cy="100" r="90" fill="url(#bgGradient)" stroke="url(#borderGradient)" stroke-width="3"/>
  
  <!-- Main Dollar Sign - Modern and bold -->
  <path d="M100 50 L100 150 M80 60 L120 60 M80 140 L120 140" stroke="url(#dollarGradient)" stroke-width="10" stroke-linecap="round"/>
  
  <!-- Growth Arrow - Clean and modern -->
  <path d="M130 70 L155 45 L145 45 L145 35 L165 35 L165 55 L175 55" stroke="url(#arrowGradient)" stroke-width="6" stroke-linecap="round" stroke-linejoin="round" fill="none"/>
  
  <!-- Chart Bars - Representing financial growth -->
  <rect x="35" y="130" width="10" height="25" fill="url(#chartGradient)" rx="3"/>
  <rect x="50" y="120" width="10" height="35" fill="url(#chartGradient)" rx="3"/>
  <rect x="65" y="110" width="10" height="45" fill="url(#chartGradient)" rx="3"/>
  
  <!-- Subtle sparkles for premium feel -->
  <circle cx="60" cy="60" r="2" fill="url(#sparkleGradient)"/>
  <circle cx="140" cy="80" r="1.5" fill="url(#sparkleGradient)"/>
  <circle cx="45" cy="90" r="1.5" fill="url(#sparkleGradient)"/>
  <circle cx="155" cy="110" r="2" fill="url(#sparkleGradient)"/>
  
  <!-- Gradients -->
  <defs>
    <linearGradient id="bgGradient" x1="0%" y1="0%" x2="100%" y2="100%">
      <stop offset="0%" style="stop-color:#1e293b;stop-opacity:1" />
      <stop offset="100%" style="stop-color:#0f172a;stop-opacity:1" />
    </linearGradient>
    
    <linearGradient id="borderGradient" x1="0%" y1="0%" x2="100%" y2="100%">
      <stop offset="0%" style="stop-color:#3b82f6;stop-opacity:0.8" />
      <stop offset="100%" style="stop-color:#1d4ed8;stop-opacity:0.8" />
    </linearGradient>
    
    <linearGradient id="dollarGradient" x1="0%" y1="0%" x2="100%" y2="100%">
      <stop offset="0%" style="stop-color:#10b981;stop-opacity:1" />
      <stop offset="100%" style="stop-color:#059669;stop-opacity:1" />
    </linearGradient>
    
    <linearGradient id="arrowGradient" x1="0%" y1="0%" x2="100%" y2="100%">
      <stop offset="0%" style="stop-color:#f59e0b;stop-opacity:1" />
      <stop offset="100%" style="stop-color:#d97706;stop-opacity:1" />
    </linearGradient>
    
    <linearGradient id="chartGradient" x1="0%" y1="0%" x2="100%" y2="100%">
      <stop offset="0%" style="stop-color:#8b5cf6;stop-opacity:1" />
      <stop offset="100%" style="stop-color:#7c3aed;stop-opacity:1" />
    </linearGradient>
    
    <linearGradient id="sparkleGradient" x1="0%" y1="0%" x2="100%" y2="100%">
      <stop offset="0%" style="stop-color:#fbbf24;stop-opacity:1" />
      <stop offset="100%" style="stop-color:#f59e0b;stop-opacity:1" />
    </linearGradient>
  </defs>
</svg>
